<?xml version="1.0" encoding="utf-8"?>
<!-- Generator: Adobe Illustrator 13.0.0, SVG Export Plug-In . SVG Version: 6.00 Build 14948)  -->
<!DOCTYPE svg PUBLIC "-//W3C//DTD SVG 1.1//EN" "http://www.w3.org/Graphics/SVG/1.1/DTD/svg11.dtd">
<svg version="1.1" id="Ebene_1" xmlns="http://www.w3.org/2000/svg" xmlns:xlink="http://www.w3.org/1999/xlink" x="0px" y="0px"
	 width="20px" height="20px" viewBox="0 0 20 20" enable-background="new 0 0 20 20" xml:space="preserve">
<g>
	<path fill="none" stroke="#FFFFFF" d="M3.083,10.917c-0.054,0.021-0.781-0.293-0.816-0.27c1.604-0.44,2.972-1.117,4.428-1.801
		c1.203-0.564,2.589-0.953,3.878-1.387c0.621-0.208-3.877,1.397,0.01,0.124"/>
	<path fill="none" stroke="#FFFFFF" d="M17.734,12.188c0.077,0.313,0.039,0.758,0.001,1.078c-0.08,0.667-0.148,1.32-0.154,1.991
		c-0.008,0.868-0.282,1.741-0.441,2.599c-0.058,0.302-0.232,0.601-0.215,0.903c-0.174,0.059-0.37,0.007-0.549-0.014
		c-0.617-0.069-1.232-0.12-1.851-0.162c-1.764-0.121-3.53-0.169-5.294-0.301c-1.778-0.131-3.593-0.203-5.38-0.241
		c-0.66-0.014-1.329,0.028-1.987-0.002c-0.028-0.71,0.193-1.413,0.346-2.113c0.037-0.17,0.226-2.35,0.202-2.515
		c-0.12-0.816-0.973-2.572,0.853-2.422c0.77,0.062,1.525,0.204,2.295,0.266c0.874,0.069,1.751,0.104,2.626,0.151
		c2.162,0.119,4.313,0.303,6.474,0.422c0.858,0.047,1.706,0.124,2.562,0.198c0.158,0.015,0.336,0.019,0.477,0.062
		c0.07-0.565,0.016-0.951-0.209-1.508c-0.404-0.996-0.979-1.988-1.558-2.932"/>
	<path fill="none" stroke="#FFFFFF" d="M2.852,13.675c1.185-0.182,2.413,0.079,3.597,0.145c1.916,0.104,3.794,0.365,5.707,0.487
		c1.181,0.074,2.401,0.112,3.565,0.257c0.346,0.042,1.258,0.222,1.611,0.187"/>
	<path fill="none" stroke="#FFFFFF" d="M2.728,16.1c-0.312-0.016,0.824-0.151,1.614-0.104c0.854,0.053,1.716,0.154,2.573,0.15
		c1.727-0.006,7.396,0.094,8.496,0.289c0.355,0.062,1.229,0.279,1.589,0.314c0.108,0.012,0.5,0-0.163-0.1"/>
</g>
<g>
	<g>
		<path fill="none" stroke="#FFFFFF" stroke-linecap="round" stroke-linejoin="round" d="M13.472,4.47
			c-0.14-0.12-0.032-0.28-0.175-0.265c-0.339,0.039-0.694,0.028-0.989,0.431c-0.279,0.384-0.3,0.99-0.072,1.409
			c0.209,0.387,0.344,0.666,0.896,0.868c0.548,0.2,1.461-0.004,1.872-0.404c0.637-0.623,0.7-1.956-0.059-2.632
			c-0.237-0.211-0.571-0.11-0.815,0.047c-0.14,0.09-0.233,0.198-0.326,0.335c-0.063,0.096-0.208,0.246-0.225,0.358
			c-0.005,0.013-0.015,0.026-0.02,0.036c0.017-0.002,0.028-0.011,0.039-0.026"/>
		<path fill="none" stroke="#FFFFFF" stroke-linecap="round" stroke-linejoin="round" d="M13.746,2.404
			c-0.214-0.012-0.351,0.349-0.407,0.51c-0.097,0.268-0.1,0.575-0.049,0.852c0.039,0.224,0.103,0.534,0.242,0.711
			c0.018-0.023-0.009-0.027-0.021-0.048"/>
	</g>
	<path fill="none" stroke="#FFFFFF" stroke-linecap="round" stroke-linejoin="round" stroke-miterlimit="1" d="M13.099,6.971
		c-0.121,0.223-0.726-0.438-0.943-0.36c-0.586,0.206-0.84,0.496-1.014,0.653c-0.389,0.348-0.671,0.944-0.708,1.495
		c-0.001,0.023,0.063,0.079,0.055,0.068"/>
	<path fill="none" stroke="#FFFFFF" stroke-linecap="round" stroke-linejoin="round" stroke-miterlimit="1" d="M13.443,7.108
		c0.039,0.25-0.231,0.519-0.416,0.636c-0.277,0.174-0.55,0.354-0.791,0.58c-0.353,0.332-0.441,0.916-0.219,1.275"/>
	<path fill="none" stroke="#FFFFFF" stroke-linecap="round" stroke-linejoin="round" stroke-miterlimit="1" d="M14.198,7.383
		c0.007,0.2,0.104,0.395,0.225,0.584c0.118,0.187,0.292,0.618,0.171,0.996c-0.117,0.367-0.312,0.626-0.618,0.825
		c0.025-0.018,0.068,0.172-0.12,0.051"/>
	<path fill="none" stroke="#FFFFFF" stroke-linecap="round" stroke-linejoin="round" stroke-miterlimit="1" d="M15.247,6.696
		c-0.021,0.718,0.871,0.842,0.979,1.511c0.038,0.233,0.109,0.498,0.07,0.739c-0.028,0.17-0.248,0.521-0.413,0.533"/>
	<path fill="none" stroke="#FFFFFF" stroke-linecap="round" stroke-linejoin="round" stroke-miterlimit="1" d="M10.574,8.774
		c0.103,0.378,0.529,0.464,0.675,0.583c0.27,0.224,0.396,0.332,0.752,0.362c0.338,0.028,0.445,0.068,0.893,0.085
		c0.278,0.011,0.589,0.006,0.859,0.069c0.174,0.04,0.395,0.05,0.566,0.086c0.201,0.042,1.065-0.12,1.443-0.361"/>
</g>
</svg>
